<svg width="273" height="273" viewBox="0 0 273 273" fill="none" xmlns="http://www.w3.org/2000/svg">
<circle cx="136.5" cy="136.5" r="136.5" fill="#7D8EAB"/>
<g filter="url(#filter0_b)">
<path d="M195.259 136.079C191.012 127.26 182.494 121.725 173.207 121.751C170.582 121.753 167.974 122.204 165.482 123.085L155.33 101.405H171.301C172.354 101.405 173.207 102.316 173.207 103.439C173.207 104.563 172.354 105.474 171.301 105.474H163.68C162.627 105.474 161.774 106.385 161.774 107.509C161.774 108.632 162.627 109.543 163.68 109.543H171.301C174.458 109.543 177.017 106.81 177.017 103.439C177.017 100.068 174.458 97.3355 171.301 97.3355H152.247C151.195 97.3294 150.337 98.2353 150.331 99.3589C150.33 99.6784 150.399 99.9937 150.532 100.28L152.975 105.474H119.127L117.222 101.405H127.477C128.529 101.405 129.382 100.494 129.382 99.3701C129.382 98.2465 128.529 97.3355 127.477 97.3355H108.423C107.371 97.3355 106.517 98.2465 106.517 99.3701C106.517 100.494 107.371 101.405 108.423 101.405H112.961L115.82 107.509L108.526 123.085C95.532 118.516 81.5295 126.059 77.2499 139.933C72.9704 153.808 80.0344 168.76 93.0281 173.33C106.022 177.9 120.024 170.356 124.304 156.482C124.928 154.457 125.321 152.36 125.474 150.235H137.004C137.158 150.234 137.312 150.213 137.461 150.172L137.501 150.162C137.545 150.15 137.583 150.123 137.627 150.109C137.704 150.085 137.78 150.056 137.854 150.021C137.865 150.021 137.871 150.005 137.88 149.999C137.89 149.993 137.934 149.971 137.958 149.954C138.014 149.916 138.067 149.874 138.118 149.83C138.201 149.769 138.278 149.7 138.351 149.627L138.425 149.545C138.454 149.511 138.471 149.472 138.498 149.435C138.524 149.399 138.587 149.332 138.623 149.271C138.639 149.242 138.646 149.21 138.66 149.181C138.673 149.153 138.694 149.136 138.707 149.11L156.058 112.058L161.965 124.672C149.821 131.34 145.038 147.257 151.282 160.224C157.526 173.191 172.432 178.298 184.576 171.631C196.72 164.963 201.502 149.046 195.259 136.079ZM100.801 170.581C89.2256 170.598 79.8286 160.592 79.8125 148.232C79.7963 135.871 89.167 125.837 100.743 125.82C102.795 125.817 104.836 126.136 106.802 126.766L97.1904 147.291C96.72 148.296 97.1018 149.518 98.0431 150.02C98.3079 150.162 98.5997 150.235 98.8958 150.235H121.663C120.67 161.75 111.631 170.566 100.801 170.581ZM101.979 146.166L110.345 128.3C116.732 131.795 121.002 138.535 121.663 146.166H101.979ZM125.474 146.166C124.805 136.992 119.718 128.849 112.043 124.664L117.95 112.05L133.921 146.166H125.474ZM137.004 143.651L121.033 109.543H152.975L137.004 143.651ZM179.265 169.635C177.3 170.265 175.259 170.584 173.206 170.581C161.639 170.591 152.255 160.587 152.245 148.235C152.239 139.827 156.65 132.125 163.662 128.3L173.406 149.11C173.877 150.116 175.022 150.524 175.964 150.021C176.905 149.519 177.288 148.297 176.817 147.291L167.206 126.766C178.293 123.21 189.979 129.924 193.309 141.762C196.639 153.6 190.352 166.079 179.265 169.635Z" fill="#F2F2F2"/>
<path d="M100.801 152.27H98.8956C97.8434 152.27 96.9902 153.181 96.9902 154.304C96.9902 155.428 97.8434 156.339 98.8956 156.339H100.801C101.853 156.339 102.706 155.428 102.706 154.304C102.706 153.181 101.853 152.27 100.801 152.27Z" fill="#F2F2F2"/>
<path d="M108.423 152.27H106.518C105.465 152.27 104.612 153.181 104.612 154.304C104.612 155.428 105.465 156.339 106.518 156.339H108.423C109.475 156.339 110.329 155.428 110.329 154.304C110.329 153.181 109.475 152.27 108.423 152.27Z" fill="#F2F2F2"/>
<path d="M116.044 152.27H114.139C113.087 152.27 112.233 153.181 112.233 154.304C112.233 155.428 113.087 156.339 114.139 156.339H116.044C117.096 156.339 117.95 155.428 117.95 154.304C117.95 153.181 117.096 152.27 116.044 152.27Z" fill="#F2F2F2"/>
</g>
<defs>
<filter id="filter0_b" x="72" y="93" width="130" height="86" filterUnits="userSpaceOnUse" color-interpolation-filters="sRGB">
<feFlood flood-opacity="0" result="BackgroundImageFix"/>
<feGaussianBlur in="BackgroundImage" stdDeviation="2"/>
<feComposite in2="SourceAlpha" operator="in" result="effect1_backgroundBlur"/>
<feBlend mode="normal" in="SourceGraphic" in2="effect1_backgroundBlur" result="shape"/>
</filter>
</defs>
</svg>
