<svg width="29" height="27" viewBox="0 0 29 27" fill="none" xmlns="http://www.w3.org/2000/svg">
<path fill-rule="evenodd" clip-rule="evenodd" d="M13.0924 0C19.9024 0 25.1259 5.586 25.7382 12.2237H28.0747L24.7359 15.6397L21.0918 12.2237H23.4529C22.8706 6.573 18.6071 1.79725 12.9776 1.79725C6.95647 1.79725 2.05588 6.85125 2.05588 13.062C2.05588 19.2727 6.95647 24.3285 12.9776 24.3285C15.9688 24.3285 18.6794 23.0807 20.6541 21.0647L22.1047 22.5103C19.6847 24.8249 16.4546 26.1201 13.0924 26.124C5.87118 26.124 0 20.2632 0 13.062C0 5.86075 5.87118 0 13.0924 0Z" fill="white"/>
<path fill-rule="evenodd" clip-rule="evenodd" d="M12.3494 5.22205L12.247 13.8373L19.3059 13.9195V12.1695L13.9553 12.278V5.2238H12.3494V5.22205Z" fill="white"/>
</svg>
