<svg width="31" height="31" viewBox="0 0 31 31" fill="none" xmlns="http://www.w3.org/2000/svg">
<path d="M16.3153 6.52964L17.0066 8.65469C17.661 8.09844 18.4206 7.67939 19.2402 7.42244C20.1546 7.12484 20.9622 6.95744 21.6922 6.86134L21.0257 4.81069C20.1946 4.93039 19.3753 5.12122 18.5767 5.38109C17.7675 5.64339 17.0044 6.03095 16.3153 6.52964ZM17.7521 10.9549L18.4434 13.0799C19.0979 12.5237 19.8574 12.1046 20.677 11.8477C21.5915 11.5501 22.399 11.3827 23.1291 11.2866L22.4626 9.23594C21.6314 9.35564 20.8121 9.54647 20.0136 9.80634C19.204 10.0677 18.4408 10.4553 17.7521 10.9549ZM19.1905 15.3786L19.8818 17.5036C20.5363 16.9474 21.2958 16.5283 22.1154 16.2714C23.0299 15.9738 23.8374 15.8064 24.5675 15.7103L23.901 13.6596C23.0698 13.7793 22.2505 13.9702 21.452 14.23C20.6424 14.4914 19.8792 14.879 19.1905 15.3786ZM8.24445 18.7452L8.91095 20.7958C9.64961 20.3963 10.4238 20.0663 11.2235 19.81C12.0377 19.5369 12.8984 19.4299 13.7547 19.4954L13.0634 17.3703C12.2133 17.3716 11.3686 17.506 10.5602 17.7687C9.76158 18.0269 8.9868 18.3536 8.24445 18.7452ZM5.3692 9.89624L6.0357 11.9469C6.77467 11.548 7.54881 11.218 8.3483 10.9611C9.16247 10.6879 10.0232 10.5809 10.8794 10.6464L10.1897 8.51984C9.33902 8.52173 8.49388 8.65666 7.6849 8.91974C6.88633 9.17798 6.11155 9.5047 5.3692 9.89624ZM6.80605 14.3215L7.47255 16.3721C8.21121 15.9726 8.98541 15.6426 9.78515 15.3863C10.5993 15.1132 11.46 15.0062 12.3163 15.0717L11.6266 12.9451C10.7764 12.9463 9.93179 13.0807 9.1233 13.3434C8.32418 13.6022 7.54889 13.9294 6.80605 14.3215ZM17.0422 0.661344C15.0058 1.31195 13.3065 2.73637 12.3101 4.62779C10.3927 3.68359 8.18113 3.53051 6.15195 4.20154C2.2413 5.47254 0 8.27339 0 8.27339L6.34725 27.7832C6.54255 28.3831 7.34855 28.5226 7.70815 28.0049C8.4816 26.8904 9.97115 25.435 12.7565 24.5298C15.4194 23.6649 17.3584 24.6135 18.4217 25.4257C18.8433 25.7481 19.4478 25.5187 19.6028 25.0103C19.9934 23.7284 21.0087 21.8483 23.6483 20.9911C26.4368 20.0844 28.4983 20.3882 29.7801 20.8361C30.3769 21.0438 30.9426 20.461 30.7489 19.8612L24.4125 0.340494C24.4125 0.340494 20.9529 -0.608106 17.0422 0.661344ZM16.8671 22.1226C15.2759 21.6437 13.5757 21.6676 11.9985 22.1908C10.0595 22.8201 8.7017 23.6618 7.8151 24.367L2.78535 8.89494C3.34025 8.34004 4.6252 7.27984 6.91145 6.53739C9.0644 5.83834 10.8299 6.43664 11.9939 7.12329L16.8671 22.1226ZM27.5528 17.9547C26.4197 17.9051 24.8263 18.0229 22.8873 18.6537C21.3038 19.1569 19.9142 20.1367 18.9084 21.4592L14.0352 6.45989C14.5715 5.21989 15.6472 3.69779 17.8017 2.99874C20.0864 2.25629 21.7496 2.35859 22.5246 2.48104L27.5528 17.9547Z" fill="white"/>
</svg>
