<svg width="29" height="30" viewBox="0 0 29 30" fill="none" xmlns="http://www.w3.org/2000/svg">
<path d="M14.5 1.875C11.9907 1.875 9.53766 2.64477 7.45121 4.08696C5.36476 5.52915 3.73857 7.579 2.77828 9.97728C1.818 12.3756 1.56674 15.0146 2.05629 17.5606C2.54584 20.1066 3.75421 22.4452 5.52859 24.2808C7.30297 26.1163 9.56366 27.3664 12.0248 27.8728C14.4859 28.3792 17.037 28.1193 19.3553 27.1259C21.6736 26.1325 23.6552 24.4503 25.0493 22.2919C26.4434 20.1335 27.1875 17.5959 27.1875 15C27.1875 11.519 25.8508 8.18064 23.4714 5.71922C21.0921 3.25781 17.8649 1.875 14.5 1.875ZM14.5 26.25C12.3491 26.25 10.2466 25.5902 8.45818 24.354C6.66979 23.1179 5.27592 21.3609 4.45282 19.3052C3.62971 17.2495 3.41435 14.9875 3.83397 12.8052C4.25358 10.6229 5.28932 8.61839 6.81022 7.04505C8.33111 5.47171 10.2689 4.40025 12.3784 3.96617C14.4879 3.53208 16.6745 3.75487 18.6617 4.60635C20.6488 5.45784 22.3473 6.89978 23.5422 8.74983C24.7372 10.5999 25.375 12.775 25.375 15C25.375 17.9837 24.2292 20.8452 22.1898 22.955C20.1503 25.0647 17.3842 26.25 14.5 26.25Z" fill="white"/>
<path d="M14.5 23.4375C15.2508 23.4375 15.8594 22.8079 15.8594 22.0312C15.8594 21.2546 15.2508 20.625 14.5 20.625C13.7492 20.625 13.1406 21.2546 13.1406 22.0312C13.1406 22.8079 13.7492 23.4375 14.5 23.4375Z" fill="white"/>
<path d="M15.4063 7.50001H14.0469C13.511 7.49877 12.9802 7.60705 12.4848 7.81863C11.9895 8.0302 11.5395 8.3409 11.1606 8.7329C10.7816 9.12489 10.4813 9.59045 10.2768 10.1029C10.0722 10.6153 9.96757 11.1644 9.96876 11.7188V12.1875H11.7813V11.7188C11.7813 11.0972 12.02 10.501 12.4448 10.0615C12.8697 9.62194 13.446 9.37501 14.0469 9.37501H15.4063C16.0071 9.37501 16.5834 9.62194 17.0083 10.0615C17.4332 10.501 17.6719 11.0972 17.6719 11.7188C17.6719 12.3404 17.4332 12.9365 17.0083 13.376C16.5834 13.8156 16.0071 14.0625 15.4063 14.0625H13.5938V18.2813H15.4063V15.9375C16.4878 15.9375 17.5251 15.493 18.2899 14.7019C19.0547 13.9107 19.4844 12.8376 19.4844 11.7188C19.4844 10.5999 19.0547 9.52682 18.2899 8.73565C17.5251 7.94449 16.4878 7.50001 15.4063 7.50001Z" fill="white"/>
</svg>
